<?xml version="1.0" standalone="no"?>
<!DOCTYPE svg PUBLIC "-//W3C//DTD SVG 20010904//EN"
 "http://www.w3.org/TR/2001/REC-SVG-20010904/DTD/svg10.dtd">
<svg version="1.0" xmlns="http://www.w3.org/2000/svg"
 width="1280.000000pt" height="845.000000pt" viewBox="0 0 1280.000000 845.000000"
 preserveAspectRatio="xMidYMid meet">
<metadata>
Created by potrace 1.16, written by Peter Selinger 2001-2019
</metadata>
<g transform="translate(0.000000,845.000000) scale(0.100000,-0.100000)"
fill="#000000" stroke="none">
<path d="M0 4388 l0 -4063 22 44 c25 50 94 100 142 102 24 1 26 3 8 6 -12 2
-22 5 -22 7 0 1 11 26 25 54 l25 52 55 0 c67 0 69 -10 15 -65 l-40 -40 33 -8
c55 -14 117 -49 138 -78 85 -120 54 -319 -59 -379 l-37 -19 108 -1 107 0 0
235 0 235 140 0 c100 0 151 -4 175 -14 46 -20 75 -69 75 -128 0 -39 -5 -52
-34 -82 -18 -20 -41 -36 -51 -36 -14 0 -12 -6 12 -33 15 -18 48 -65 73 -105
l45 -72 90 0 c88 0 89 1 60 16 -84 43 -119 109 -119 219 0 94 21 145 81 194
68 56 205 65 275 17 34 -23 78 -80 78 -102 0 -12 -57 -34 -90 -34 -8 0 -23 13
-32 29 -29 51 -123 54 -169 5 -18 -19 -24 -39 -27 -89 -5 -74 8 -116 46 -145
49 -39 166 -13 168 38 1 20 -4 22 -53 22 l-53 0 0 45 0 45 105 0 105 0 0 -99
c0 -97 -1 -100 -27 -119 -16 -10 -41 -24 -58 -30 -26 -9 -20 -11 47 -11 l76
-1 62 158 c34 86 75 192 92 235 l30 77 57 0 56 0 93 -235 c86 -216 96 -235
118 -235 l24 0 0 235 0 235 53 0 52 -1 83 -137 82 -137 0 138 0 137 50 0 50 0
0 -235 0 -235 118 0 c105 1 114 2 87 14 -77 33 -134 151 -121 249 19 143 92
211 226 211 152 0 230 -81 230 -239 0 -111 -35 -178 -115 -219 -28 -15 -17
-16 178 -16 l207 0 0 235 0 235 181 0 180 0 -3 -48 -3 -47 -122 -3 -123 -3 0
-39 0 -40 115 0 115 0 0 -45 0 -45 -115 0 -115 0 0 -55 0 -55 125 0 125 0 0
-45 0 -45 40 0 40 0 0 235 0 235 55 0 c69 0 67 6 63 -213 l-3 -167 113 0 112
0 0 -45 c0 -45 0 -45 35 -45 l35 0 0 235 0 235 175 0 175 0 0 -50 0 -50 -120
0 -120 0 0 -40 0 -40 110 0 110 0 0 -45 0 -45 -110 0 -110 0 0 -55 0 -55 125
0 125 0 0 -45 0 -45 102 0 103 0 -35 18 c-76 40 -120 151 -104 260 20 132 91
196 220 196 61 0 77 -3 113 -27 44 -29 78 -85 68 -110 -3 -8 -24 -18 -46 -22
-38 -6 -43 -4 -75 29 -35 38 -77 47 -117 26 -63 -34 -72 -198 -13 -257 44 -44
118 -25 144 37 14 34 17 35 71 18 29 -8 39 -16 39 -32 0 -41 -51 -106 -100
-128 -8 -4 54 -7 138 -7 l152 -1 0 185 0 184 -68 3 -67 3 -3 47 -3 48 190 0
191 0 0 -50 0 -50 -65 0 -65 0 0 -185 0 -185 153 0 152 0 -42 26 c-26 15 -54
44 -70 72 -25 42 -28 57 -28 137 0 80 3 95 28 137 42 72 101 103 197 103 64 0
82 -4 122 -28 65 -38 99 -98 106 -185 8 -114 -28 -197 -103 -239 l-40 -23 108
0 107 0 0 235 0 235 140 0 c206 0 245 -22 245 -137 0 -60 -2 -67 -33 -94 -18
-16 -39 -29 -48 -29 -12 0 -9 -8 12 -33 16 -18 47 -60 69 -95 22 -34 42 -62
45 -62 3 0 27 57 54 128 27 70 66 170 87 222 l37 95 58 0 58 0 88 -220 c48
-121 88 -225 88 -232 0 -8 12 -13 30 -13 l30 0 0 235 0 235 55 0 55 0 0 -190
0 -190 115 0 115 0 0 -45 0 -45 120 0 120 0 0 235 0 235 133 0 c109 0 138 -3
166 -18 69 -37 94 -145 48 -213 -33 -50 -79 -69 -164 -69 l-73 0 0 -85 0 -85
170 0 170 0 0 235 0 235 55 0 55 0 0 -190 0 -190 115 0 115 0 0 -45 0 -45 81
0 82 0 -34 23 c-58 39 -64 62 -67 264 l-3 183 55 0 55 0 3 -169 c4 -197 9
-211 84 -211 69 0 74 14 74 212 l0 168 55 0 55 0 0 -182 c-1 -202 -8 -230 -66
-268 l-29 -20 98 0 97 0 0 235 0 235 140 0 c157 0 194 -9 225 -56 25 -38 26
-121 1 -159 -10 -15 -31 -32 -46 -38 l-28 -11 32 -40 c38 -48 96 -142 96 -156
0 -6 11 -10 25 -10 l25 0 0 235 0 235 55 0 55 0 0 -235 0 -235 45 0 45 0 0
235 0 235 53 0 53 0 79 -130 80 -130 5 128 5 127 53 3 52 3 0 -235 0 -236 24
0 c20 0 27 8 41 50 9 27 48 127 86 222 38 95 69 178 69 185 0 11 15 13 62 11
l61 -3 88 -220 c49 -121 89 -226 89 -232 0 -10 24 -13 88 -13 l87 0 -30 19
c-75 47 -105 108 -105 216 0 111 36 181 115 223 40 21 160 21 200 0 39 -21 71
-56 85 -92 13 -35 5 -42 -54 -52 -31 -5 -41 -3 -49 11 -51 93 -169 63 -183
-47 -15 -113 23 -188 96 -188 30 0 44 6 64 31 14 17 26 37 26 45 0 8 5 14 11
14 25 0 99 -23 99 -31 0 -32 -38 -95 -73 -120 l-40 -29 94 0 94 0 0 232 0 233
58 3 57 3 0 -236 0 -235 108 0 c97 1 104 2 77 14 -40 17 -90 75 -106 123 -7
21 -13 65 -13 98 0 74 17 126 57 171 47 54 82 68 167 68 155 0 230 -79 230
-241 -1 -113 -33 -175 -115 -217 -29 -15 -26 -16 83 -16 l112 0 0 235 0 235
50 0 c56 0 50 7 169 -190 l51 -84 0 137 0 137 55 0 55 0 0 -235 0 -235 25 0
c14 0 25 6 25 13 0 7 24 73 53 147 30 74 69 174 87 223 l33 87 57 0 57 0 94
-235 c84 -210 96 -235 116 -235 l23 0 0 235 0 235 55 0 55 0 0 -190 0 -190
110 0 110 0 0 4180 0 4180 -2545 0 -2545 0 0 -1285 0 -1285 -1285 0 -1285 0 0
1285 0 1285 -2570 0 -2570 0 0 -4062z m10760 747 l0 -255 -4370 0 -4370 0 0
255 0 255 4370 0 4370 0 0 -255z m-7038 -765 c279 -27 538 -120 730 -261 142
-106 285 -280 369 -449 221 -446 225 -1202 9 -1666 -115 -247 -332 -471 -575
-592 -393 -195 -1074 -196 -1480 -2 -249 119 -450 322 -583 587 -211 419 -224
1142 -28 1594 196 455 589 733 1112 788 111 12 331 12 446 1z m4088 -380 l0
-340 -755 0 -755 0 0 -235 0 -235 700 0 700 0 0 -320 0 -320 -700 0 -700 0 0
-295 0 -295 775 0 775 0 0 -360 0 -360 -1235 0 -1235 0 0 1550 0 1550 1215 0
1215 0 0 -340z m2205 325 c137 -20 223 -46 335 -102 157 -79 283 -219 353
-393 61 -154 87 -366 68 -558 -16 -166 -42 -264 -102 -387 -122 -250 -327
-394 -659 -461 -55 -11 -169 -17 -432 -21 l-358 -5 -2 -567 -3 -566 -452 -3
-453 -2 0 1540 0 1540 803 0 c647 0 821 -3 902 -15z"/>
<path d="M3374 3645 c-146 -32 -287 -143 -353 -280 -137 -283 -131 -859 11
-1127 34 -65 112 -148 177 -189 85 -54 163 -74 296 -74 124 0 186 11 260 48
226 111 325 360 325 815 -1 421 -104 654 -341 768 -104 50 -252 66 -375 39z"/>
<path d="M9220 3360 l0 -332 198 5 c247 6 306 23 389 109 54 56 77 121 77 218
1 102 -27 173 -92 238 -67 67 -136 83 -374 90 l-198 5 0 -333z"/>
<path d="M149 352 c-58 -51 -57 -183 0 -234 46 -42 102 -39 147 6 35 35 39 54
34 146 -6 100 -109 146 -181 82z"/>
<path d="M2623 370 c-38 -15 -63 -68 -63 -133 0 -97 40 -147 116 -147 89 0
136 97 103 213 -17 62 -90 93 -156 67z"/>
<path d="M5472 355 c-61 -51 -61 -189 0 -240 40 -34 96 -34 136 0 70 59 60
220 -15 254 -41 19 -89 13 -121 -14z"/>
<path d="M11163 370 c-38 -16 -63 -68 -63 -133 0 -97 40 -147 116 -147 81 0
127 82 109 190 -10 60 -41 91 -95 96 -25 2 -55 0 -67 -6z"/>
<path d="M9480 137 l0 -137 86 0 c47 0 83 3 80 8 -2 4 -41 65 -85 136 l-81
130 0 -137z"/>
<path d="M2090 133 l0 -133 80 0 c44 0 80 3 80 6 0 5 -127 212 -152 248 -4 6
-8 -49 -8 -121z"/>
<path d="M11620 132 l0 -132 80 0 c44 0 80 3 80 6 0 5 -114 190 -147 239 -11
17 -13 1 -13 -113z"/>
<path d="M630 95 l0 -95 95 0 96 0 -60 89 c-59 87 -74 101 -112 101 -17 0 -19
-8 -19 -95z"/>
<path d="M5950 95 l0 -95 96 0 c75 0 94 3 87 13 -5 6 -31 45 -58 85 -49 75
-69 92 -104 92 -20 0 -21 -6 -21 -95z"/>
<path d="M8820 95 l0 -95 95 0 95 0 -46 68 c-64 92 -94 122 -121 122 -22 0
-23 -2 -23 -95z"/>
<path d="M1601 63 c-7 -21 -15 -44 -17 -50 -4 -10 22 -13 115 -13 67 0 121 2
121 4 0 2 -9 25 -20 50 l-19 46 -84 0 -84 0 -12 -37z"/>
<path d="M6406 54 c-9 -26 -16 -49 -16 -51 0 -2 54 -3 120 -3 l120 0 -19 47
-19 48 -85 3 -85 3 -16 -47z"/>
<path d="M9946 60 c-9 -22 -16 -45 -16 -50 0 -6 47 -10 115 -10 63 0 115 3
115 7 0 4 -7 27 -16 50 l-17 43 -82 0 -83 0 -16 -40z"/>
<path d="M12078 50 l-16 -50 120 0 c92 0 119 3 115 12 -2 7 -10 30 -18 50
l-13 38 -86 0 -85 0 -17 -50z"/>
</g>
</svg>
