<?xml version="1.0" standalone="no"?>
<!DOCTYPE svg PUBLIC "-//W3C//DTD SVG 20010904//EN"
 "http://www.w3.org/TR/2001/REC-SVG-20010904/DTD/svg10.dtd">
<svg version="1.0" xmlns="http://www.w3.org/2000/svg"
 width="121.000000pt" height="111.000000pt" viewBox="0 0 121.000000 111.000000"
 preserveAspectRatio="xMidYMid meet">
<metadata>
Created by potrace 1.16, written by Peter Selinger 2001-2019
</metadata>
<g transform="translate(0.000000,111.000000) scale(0.100000,-0.100000)"
fill="#000000" stroke="none">
<path d="M0 555 l0 -555 227 0 227 0 -74 75 -75 75 47 46 46 47 38 -42 38 -42
188 188 188 188 46 -46 46 -46 -210 -214 c-116 -118 -214 -217 -218 -221 -4
-5 151 -8 344 -8 l352 0 0 555 0 555 -257 0 -258 0 85 -85 84 -85 -44 -45 -44
-45 -43 42 -43 42 -185 -184 -185 -184 -45 44 -45 44 227 228 228 228 -343 0
-342 0 0 -555z m925 115 l230 -230 -87 -87 -88 -88 -45 45 -45 44 42 43 42 43
-187 188 -187 187 42 43 c24 23 45 42 48 42 3 0 109 -104 235 -230z m-683 28
l-42 -43 185 -185 185 -186 -45 -44 -45 -44 -230 229 -230 230 87 87 88 88 45
-45 45 -45 -43 -42z"/>
</g>
</svg>
